<?xml version="1.0" encoding="UTF-8" standalone="no"?>
<svg
   xmlns:dc="http://purl.org/dc/elements/1.1/"
   xmlns:cc="http://creativecommons.org/ns#"
   xmlns:rdf="http://www.w3.org/1999/02/22-rdf-syntax-ns#"
   xmlns:svg="http://www.w3.org/2000/svg"
   xmlns="http://www.w3.org/2000/svg"
   viewBox="0 0 682.66669 682.66669"
   height="682.66669"
   width="682.66669"
   xml:space="preserve"
   id="svg2"
   version="1.1"><metadata
     id="metadata8"><rdf:RDF><cc:Work
         rdf:about=""><dc:format>image/svg+xml</dc:format><dc:type
           rdf:resource="http://purl.org/dc/dcmitype/StillImage" /></cc:Work></rdf:RDF></metadata><defs
     id="defs6"><clipPath
       id="clipPath50"
       clipPathUnits="userSpaceOnUse"><path
         id="path48"
         d="M 0,512 H 512 V 0 H 0 Z" /></clipPath></defs><g
     transform="matrix(1.3333333,0,0,-1.3333333,0,682.66667)"
     id="g10"><g
       transform="translate(276.5101,275.4927)"
       id="g12"><path
         id="path14"
         style="fill:#000000;fill-opacity:1;fill-rule:nonzero;stroke:none"
         d="m 0,0 -16.852,-1.292 3.202,33.374 -18.836,-1.445 -3.202,-33.373 -16.853,-1.292 7.57,79.025 16.742,1.283 -2.88,-30.358 18.836,1.444 2.879,30.358 16.963,1.301 z" /></g><g
       transform="translate(333.2464,343.3301)"
       id="g16"><path
         id="path18"
         style="fill:#000000;fill-opacity:1;fill-rule:nonzero;stroke:none"
         d="m 0,0 -20.378,-1.562 -1.623,-16.413 19.057,1.462 -1.36,-14.064 -18.945,-1.453 -1.716,-18.081 22.25,1.706 -1.478,-15.404 -38.443,-2.947 7.57,79.025 36.459,2.795 z" /></g><g
       transform="translate(377.0784,283.2036)"
       id="g20"><path
         id="path22"
         style="fill:#000000;fill-opacity:1;fill-rule:nonzero;stroke:none"
         d="m 0,0 -38.001,-2.914 7.568,79.025 16.963,1.301 -6.013,-63.172 21.038,1.613 z" /></g><g
       transform="translate(423.2318,286.7422)"
       id="g24"><path
         id="path26"
         style="fill:#000000;fill-opacity:1;fill-rule:nonzero;stroke:none"
         d="m 0,0 -38.001,-2.914 7.568,79.025 16.963,1.301 -6.013,-63.172 21.039,1.613 z" /></g><g
       transform="translate(292.4046,209.5176)"
       id="g28"><path
         id="path30"
         style="fill:#f05762;fill-opacity:1;fill-rule:nonzero;stroke:none"
         d="m 0,0 -2.794,-28.578 -17.073,-1.31 2.795,28.579 -14.392,48.977 17.844,1.369 6.558,-32.072 0.331,0.025 12.938,33.567 18.395,1.41 z" /></g><g
       transform="translate(358.7933,249.7314)"
       id="g32"><path
         id="path34"
         style="fill:#f05762;fill-opacity:1;fill-rule:nonzero;stroke:none"
         d="M 0,0 -20.378,-1.562 -22,-17.975 l 19.056,1.461 -1.36,-14.063 -18.945,-1.453 -1.716,-18.081 22.25,1.706 -1.478,-15.405 -38.443,-2.947 7.57,79.026 36.46,2.795 z" /></g><g
       transform="translate(394.1937,250.4502)"
       id="g36"><path
         id="path38"
         style="fill:#f05762;fill-opacity:1;fill-rule:nonzero;stroke:none"
         d="m 0,0 -0.441,-0.033 -10.32,-34.474 13.989,1.072 z m 5.458,-61.073 -1.454,14.625 -18.175,-1.394 -4.715,-15.098 -17.624,-1.351 27.837,80.579 21.259,1.63 10.056,-77.674 z" /></g><g
       transform="translate(476.7571,195.2891)"
       id="g40"><path
         id="path42"
         style="fill:#f05762;fill-opacity:1;fill-rule:nonzero;stroke:none"
         d="m 0,0 -16.854,-1.293 3.204,33.374 -18.836,-1.444 -3.202,-33.373 -16.854,-1.293 7.569,79.026 16.744,1.283 -2.88,-30.358 18.836,1.444 2.878,30.359 16.963,1.3 z" /></g><g
       id="g44"><g
         clip-path="url(#clipPath50)"
         id="g46"><g
           transform="translate(112.4279,167.5786)"
           id="g52"><path
             id="path54"
             style="fill:#f05762;fill-opacity:1;fill-rule:nonzero;stroke:none"
             d="M 0,0 C 2.94,-3.996 7.472,-4.412 10.394,1.248 13.178,6.64 -4.143,5.631 0,0" /></g><g
           transform="translate(119.2796,153.5444)"
           id="g56"><path
             id="path58"
             style="fill:#f05762;fill-opacity:1;fill-rule:nonzero;stroke:none"
             d="m 0,0 c -14.641,-1.227 -30.925,5.66 -38.509,19.735 4.833,0.879 9.631,2.271 14.28,4.115 3.442,-3.658 8.852,-4.635 14.552,3.093 1.032,1.399 0.654,2.805 -0.54,4.061 C 2.812,39.26 13.3,50.857 17.96,63.276 27.133,60.019 35.364,53.336 36.447,40.427 38.428,16.786 18.968,1.59 0,0 m -67.576,103.958 c -5.63,5.346 7.772,17.873 27.45,24.215 3.407,1.098 7.076,-0.675 8.328,-4.029 6.585,-17.641 10.335,-43.637 12.757,-61.144 6.052,1.804 13.212,2.897 18.634,3.026 -2.78,30.012 -7.807,87.09 12.793,86.142 14.42,-0.665 6.656,-56.054 2.441,-80.902 C 13.899,65.797 11.87,60.516 8.875,55.847 3.371,47.271 -4.975,39.543 -14.69,33.786 c -4.418,1.802 -16.61,4.583 -12.155,-5.856 -4.462,-1.692 -9.06,-2.96 -13.688,-3.706 -1.111,3.018 -1.862,6.298 -2.159,9.845 -0.903,10.778 3.742,18.02 10.626,22.875 -3.304,7.612 -10.204,23.99 -15.671,40.332 8.045,3.886 10.355,7.464 10.355,7.464 -9.806,-3.757 -22.915,-7.693 -30.194,-0.782 M 67.278,103.854 C 70.262,86.399 60.097,81.055 52.529,80.42 c -13.341,-1.118 -24.686,14.507 -8.37,42.023 24.333,41.037 -6.706,81.55 -25.087,86.966 7.117,-9.388 7.636,-29.891 -10.47,-31.409 -25.491,-2.137 -26.506,45.639 -16.106,56.143 -52.444,-17.672 -30.342,-59.392 -30.278,-72.353 0.146,-29.316 -42.417,-21.34 -27.905,8.082 -18.447,-5.73 -25.995,-31.288 -25.918,-46.946 0.127,-25.501 30.771,-47.911 30.855,-64.911 0.091,-18.404 -24.616,-20.415 -24.712,-1.049 -17.806,-24.657 5.72,-92.607 87.913,-85.709 89.761,7.534 90.407,110.974 64.827,132.597" /></g><g
           transform="translate(123.3824,181.6428)"
           id="g60"><path
             id="path62"
             style="fill:#f05762;fill-opacity:1;fill-rule:nonzero;stroke:none"
             d="M 0,0 C 10.977,-10.603 17.579,0.35 17.164,7.902 16.733,15.749 -5.627,5.435 0,0" /></g></g></g></g></svg>
